<svg width="32" height="32" viewBox="0 0 32 32" fill="none" xmlns="http://www.w3.org/2000/svg">
<path d="M15.9987 29.3335V20.0002L13.332 17.3335" stroke="black" stroke-width="2.66667" stroke-linecap="round" stroke-linejoin="round"/>
<path d="M18.6669 18.6667L16.0002 21.3333M22.6669 10.6667V11.7333C24.2169 12.623 25.4244 14.006 26.0968 15.6619C26.7692 17.3177 26.8677 19.1511 26.3767 20.8695C25.8858 22.5879 24.8335 24.0924 23.3878 25.1431C21.9421 26.1938 20.1862 26.7302 18.4002 26.6667H13.3335C11.5055 26.5426 9.76375 25.8423 8.35858 24.6664C6.9534 23.4905 5.95707 21.8995 5.51267 20.1219C5.06828 18.3443 5.1987 16.4716 5.88519 14.7728C6.57168 13.074 7.77893 11.6364 9.33353 10.6667C9.33353 8.89856 10.0359 7.20286 11.2862 5.95262C12.5364 4.70238 14.2321 4 16.0002 4C17.7683 4 19.464 4.70238 20.7142 5.95262C21.9645 7.20286 22.6669 8.89856 22.6669 10.6667Z" stroke="black" stroke-width="2.66667" stroke-linecap="round" stroke-linejoin="round"/>
</svg>
