<svg viewBox="0 0 256 256" fill="none" xmlns="http://www.w3.org/2000/svg">
<g clip-path="url(#clip0_4700_20801)">
<path d="M179.016 56.5981H208.494C234.714 56.5981 256 77.8851 256 104.105V207.757C256 233.977 234.713 255.264 208.494 255.264H206.171C192.676 253.153 186.823 249.106 182.302 245.685L144.823 214.87C143.884 214.111 142.713 213.697 141.505 213.697C140.298 213.697 139.127 214.111 138.188 214.87L126.012 224.882L91.72 196.685C90.7825 195.924 89.6117 195.508 88.404 195.508C87.1963 195.508 86.0255 195.924 85.088 196.685L37.448 238.595C27.86 246.393 21.518 244.952 17.405 244.5C6.782 235.782 0 222.556 0 207.757V104.105C0 77.8851 21.287 56.5981 47.51 56.5981H76.922L76.869 56.7171L75.877 59.6071L75.569 60.5991L74.234 66.5191L74.05 67.5591L73.464 73.4891L73.386 75.1161L73.374 75.6861L73.43 78.4061L73.564 79.9991L73.894 82.4931L74.315 84.7381L74.815 86.8061L75.463 89.0441L77.146 93.7841L77.701 95.2061L80.632 101.398L81.668 103.3L85.057 109.118L86.354 111.217L91.084 118.182L91.767 119.105L97.922 127.115L99.912 129.582L106.939 137.798L108.383 139.378L114.176 145.612L116.471 147.988L120.263 151.754L119.502 152.39L119.028 152.818C117.738 154.019 116.518 155.293 115.374 156.634C114.824 157.283 114.3 157.953 113.802 158.642C113.043 159.696 112.365 160.805 111.772 161.96C111.469 162.56 111.198 163.174 110.958 163.802C110.34 165.406 109.969 167.095 109.858 168.81L109.836 170.291C109.89 172.379 110.316 174.441 111.092 176.381C111.88 178.347 113.029 180.148 114.479 181.691C115.533 182.815 116.734 183.793 118.049 184.597C119.169 185.283 120.362 185.847 121.603 186.277C124.3 187.192 127.163 187.518 129.997 187.231H130.013C132.431 186.998 134.781 186.3 136.935 185.177C137.865 184.685 138.749 184.112 139.579 183.465C141.954 181.617 143.794 179.17 144.911 176.375C145.784 174.195 146.211 171.865 146.173 169.521L146.105 168.296C145.946 166.677 145.56 165.089 144.957 163.578C144.695 162.921 144.399 162.277 144.069 161.651C143.455 160.498 142.756 159.393 141.979 158.343C141.624 157.863 141.256 157.392 140.876 156.93C139.611 155.42 138.248 153.993 136.798 152.659L135.772 151.786L137.508 150.071L144.973 142.276L147.555 139.441L151.568 134.926L154.178 131.874L157.9 127.34L160.42 124.172L164.12 119.224L165.989 116.664L168.639 112.701L170.846 109.324L175.006 102.081L177.385 97.3291L177.454 97.1831L179.274 92.7731C179.299 92.7165 179.32 92.6585 179.337 92.5991L181.298 86.4811L181.504 85.5901L182.355 80.7201L182.52 79.4001L182.57 78.5931L182.63 75.5431L182.614 74.9761L182.458 72.2441L182.265 70.1241L181.298 64.0101C181.284 63.9281 181.266 63.8469 181.242 63.7671L180.001 59.2451L179.574 57.9891L179.016 56.5981ZM193.028 185.856C186.848 185.943 181.859 190.932 181.772 197.112C181.862 203.291 186.85 208.277 193.028 208.365C199.206 208.275 204.194 203.29 204.288 197.112C204.198 190.932 199.208 185.943 193.028 185.856Z" fill="url(#paint0_radial_4700_20801)"/>
<path d="M102.63 255.264H47.5103C36.5298 255.279 25.886 251.474 17.4043 244.5C21.5173 244.952 27.8593 246.393 37.4473 238.595L85.0873 196.685C86.0247 195.924 87.1956 195.508 88.4033 195.508C89.611 195.508 90.7818 195.924 91.7193 196.685L126.011 224.882L138.187 214.87C139.126 214.111 140.297 213.696 141.505 213.696C142.712 213.696 143.883 214.111 144.822 214.87L182.302 245.685C186.822 249.105 192.675 253.153 206.17 255.264H181.238C179.036 255.236 176.897 254.523 175.118 253.224L174.681 252.888L141.698 225.499L109.148 252.888C107.31 254.401 105.011 255.239 102.63 255.264ZM193.027 185.856C186.847 185.943 181.858 190.932 181.771 197.112C181.861 203.291 186.849 208.277 193.027 208.365C199.205 208.275 204.193 203.29 204.287 197.112C204.197 190.932 199.207 185.943 193.027 185.856ZM120.262 151.754L116.47 147.988L114.175 145.612L108.382 139.379L106.938 137.798L99.9103 129.582L97.9203 127.116L91.7663 119.106L91.0833 118.182L86.3533 111.217L85.0563 109.118L81.6663 103.3L80.6313 101.398L77.7013 95.206L77.1453 93.784L75.4623 89.044L74.8133 86.806L74.3143 84.738L73.8943 82.493L73.5633 80L73.4293 78.407L73.3733 75.687L73.3853 75.117L73.4633 73.49L74.0493 67.56L74.2333 66.52L75.5683 60.6L75.8763 59.608L76.8683 56.718L77.1863 55.969L78.7643 52.502L79.8583 50.438L81.3833 47.925L82.9013 45.686L83.9833 44.264L85.2303 42.761L86.6023 41.252L87.7783 40.07L90.6403 37.551L92.7323 35.839C92.783 35.797 92.835 35.7576 92.8883 35.721L95.3643 34.046L97.3323 32.793L101.067 30.825C101.123 30.791 101.189 30.763 101.247 30.735L106.545 28.537L107.035 28.353L111.743 26.975L113.733 26.529L116.42 25.989L118.204 25.719L120.938 25.379L122.803 25.213L126.503 25.017L127.953 25.001L130.701 25.057L131.415 25.097L135.393 25.428L140.657 26.17L141.265 26.298L146.465 27.592L147.993 28.047L149.69 28.634L151.757 29.416L153.391 30.108L155.791 31.24L157.304 32.017L160.023 33.613L161.036 34.237L164.743 36.943L165.807 37.866L168.392 40.22L168.519 40.348L170.711 42.699L171.466 43.55L174.038 46.968L174.562 47.784L176.604 51.233L177.219 52.415L178.369 54.987L179.573 57.99L180 59.246L181.241 63.768C181.265 63.848 181.283 63.929 181.297 64.011L182.264 70.125L182.457 72.245L182.613 74.977L182.629 75.544L182.569 78.594L182.519 79.401L182.354 80.721L181.503 85.591L181.297 86.482L179.336 92.6C179.318 92.66 179.298 92.7183 179.274 92.775L177.453 97.184L177.384 97.33L175.004 102.082L170.845 109.325L168.638 112.702L165.988 116.665L164.12 119.225L160.419 124.173L157.899 127.341L154.176 131.875L151.566 134.927L147.554 139.442L144.972 142.277L137.507 150.072L135.771 151.787L136.797 152.66C138.248 153.994 139.61 155.421 140.875 156.931C141.255 157.393 141.623 157.864 141.979 158.344C142.756 159.394 143.454 160.499 144.068 161.652C144.399 162.277 144.695 162.92 144.956 163.579C145.552 165.089 145.954 166.684 146.104 168.297L146.172 169.522C146.21 171.867 145.781 174.197 144.91 176.375C143.793 179.17 141.953 181.617 139.578 183.465C138.749 184.112 137.864 184.685 136.934 185.178C134.78 186.301 132.43 186.998 130.012 187.232H129.996C127.162 187.518 124.3 187.193 121.602 186.278C120.361 185.847 119.169 185.284 118.048 184.598C116.733 183.794 115.533 182.816 114.478 181.692C113.028 180.148 111.88 178.347 111.091 176.382C110.315 174.443 109.889 172.38 109.835 170.292L109.857 168.811C109.969 167.096 110.34 165.407 110.957 163.803C111.197 163.173 111.469 162.559 111.771 161.961C112.364 160.806 113.043 159.697 113.801 158.643C114.298 157.953 114.823 157.283 115.373 156.635C116.517 155.294 117.737 154.02 119.027 152.819L119.501 152.391L120.262 151.754Z" fill="black"/>
<path d="M141.7 225.499L174.682 252.888C176.567 254.421 178.922 255.26 181.352 255.264H102.518C104.938 255.264 107.282 254.425 109.15 252.888L141.7 225.499ZM128.164 160.859L128.463 160.946C128.56 160.993 128.641 161.062 128.728 161.121L128.978 161.342C129.595 161.912 130.193 162.504 130.77 163.116C131.176 163.549 131.57 163.996 131.952 164.457C132.437 165.039 132.886 165.65 133.299 166.287C133.477 166.568 133.642 166.852 133.798 167.148C133.932 167.404 134.053 167.667 134.16 167.937C134.347 168.405 134.487 168.897 134.53 169.399L134.521 170.341C134.459 171.191 134.195 172.014 133.753 172.742C133.31 173.47 132.7 174.082 131.974 174.528C131.03 175.097 129.971 175.446 128.874 175.548L127.712 175.582L126.729 175.495C126.269 175.428 125.817 175.318 125.379 175.168C124.932 175.015 124.504 174.814 124.101 174.569L123.334 174.008C122.43 173.236 121.815 172.18 121.588 171.014C121.55 170.818 121.52 170.62 121.498 170.422L121.469 169.524C121.485 169.281 121.521 169.04 121.575 168.801C121.709 168.276 121.9 167.768 122.145 167.285C122.461 166.678 122.818 166.097 123.218 165.542C123.882 164.645 124.602 163.79 125.373 162.982C125.867 162.458 126.378 161.95 126.907 161.461L127.284 161.121C127.546 160.946 127.549 160.946 127.849 160.859H128.164ZM126.234 35.6638L126.355 35.6538V140.635L126.093 140.152C122.637 133.759 119.421 127.239 116.449 120.608C114.037 115.241 111.854 109.774 109.904 104.223C108.345 99.8005 107.028 95.2965 105.96 90.7308C105.13 87.1048 104.495 83.4258 104.233 79.7088C104.133 78.1229 104.102 76.5334 104.143 74.9448C104.167 73.5608 104.223 72.1785 104.311 70.7978C104.445 68.6253 104.671 66.4594 104.987 64.3058C105.237 62.6113 105.554 60.9273 105.938 59.2578C106.243 57.9329 106.599 56.6203 107.005 55.3228C107.591 53.4534 108.294 51.6225 109.109 49.8408C109.409 49.1988 109.729 48.5598 110.067 47.9328C112.093 44.1788 114.843 40.7208 118.445 38.4078C120.785 36.8849 123.456 35.944 126.234 35.6638ZM139.847 35.9288L146.909 37.9428C150.18 39.1498 153.329 40.7238 156.223 42.6888C160.166 45.3514 163.565 48.7421 166.238 52.6788C167.806 55.0184 169.107 57.5264 170.117 60.1558C171.585 64.0433 172.494 68.1197 172.817 72.2628C172.911 73.3478 172.964 74.4358 172.985 75.5248C173.01 76.5348 173.005 77.5478 172.923 78.5578C172.723 80.8189 172.298 83.0544 171.654 85.2308C171.136 87.0116 170.525 88.764 169.824 90.4808C168.951 92.6162 167.981 94.7107 166.918 96.7578C164.564 101.305 161.854 105.654 158.954 109.86C155.359 115.03 151.527 120.03 147.471 124.846C143.064 130.1 138.469 135.193 133.695 140.115C136.935 134.039 139.959 127.851 142.762 121.562C144.32 118.058 145.79 114.516 147.172 110.939C148.69 107.01 150.06 103.026 151.278 98.9938C152.187 95.9735 152.975 92.9177 153.638 89.8338C154.209 87.1876 154.637 84.5123 154.92 81.8198C155.15 79.5748 155.234 77.3178 155.178 75.0658C155.157 73.6879 155.106 72.3106 155.026 70.9348C154.696 65.3968 153.853 59.8778 152.238 54.5678C151.626 52.5548 150.882 50.5842 150.012 48.6688C147.945 44.1668 145.06 39.9568 141.157 36.8858L139.847 35.9288Z" fill="white"/>
</g>
<defs>
<radialGradient id="paint0_radial_4700_20801" cx="0" cy="0" r="1" gradientUnits="userSpaceOnUse" gradientTransform="translate(10548.5 9903.28) scale(18545.1 18545.1)">
<stop stop-color="#BA7BF0"/>
<stop offset="0.45" stop-color="#996BEC"/>
<stop offset="1" stop-color="#5046E4"/>
</radialGradient>
<clipPath id="clip0_4700_20801">
<rect width="256" height="231" fill="white" transform="translate(0 25)"/>
</clipPath>
</defs>
</svg>
