<svg  viewBox="0 0 16 16" fill="none" xmlns="http://www.w3.org/2000/svg">
<g clip-path="url(#clip0_4696_20787)">
<path d="M0 2.75869C0 1.23512 1.23512 0 2.75869 0H13.2413C14.7649 0 16 1.23512 16 2.75869V11.6742C16 13.2502 14.0053 13.9343 13.0382 12.6903L10.0138 8.79956V13.5173C10.0138 14.8885 8.90225 16 7.53113 16H2.75863C1.23519 16 0 14.7649 0 13.2413V2.75869ZM2.75869 2.20712C2.68627 2.20706 2.61456 2.22127 2.54764 2.24893C2.48072 2.2766 2.41991 2.31719 2.36868 2.36837C2.31746 2.41956 2.27682 2.48034 2.2491 2.54723C2.22138 2.61413 2.20712 2.68584 2.20712 2.75825V13.2414C2.20712 13.5462 2.45375 13.7933 2.75825 13.7933H7.61375C7.76625 13.7933 7.80669 13.6697 7.80669 13.5173V7.19106C7.80669 5.61469 9.80131 4.93069 10.7689 6.17513L13.7933 10.0653V2.75875C13.7933 2.45381 13.8217 2.20719 13.5173 2.20719L2.75869 2.20712Z" fill="#00E0D9"/>
<path d="M0 2.75869C0 1.23512 1.23512 0 2.75869 0H13.2413C14.7649 0 16 1.23512 16 2.75869V11.6742C16 13.2502 14.0053 13.9343 13.0382 12.6903L10.0138 8.79956V13.5173C10.0138 14.8885 8.90225 16 7.53113 16H2.75863C1.23519 16 0 14.7649 0 13.2413V2.75869ZM2.75869 2.20712C2.68627 2.20706 2.61456 2.22127 2.54764 2.24893C2.48072 2.2766 2.41991 2.31719 2.36868 2.36837C2.31746 2.41956 2.27682 2.48034 2.2491 2.54723C2.22138 2.61413 2.20712 2.68584 2.20712 2.75825V13.2414C2.20712 13.5462 2.45375 13.7933 2.75825 13.7933H7.61375C7.76625 13.7933 7.80669 13.6697 7.80669 13.5173V7.19106C7.80669 5.61469 9.80131 4.93069 10.7689 6.17513L13.7933 10.0653V2.75875C13.7933 2.45381 13.8217 2.20719 13.5173 2.20719L2.75869 2.20712Z" fill="url(#paint0_linear_4696_20787)"/>
<path d="M0 2.75869C0 1.23512 1.23512 0 2.75869 0H13.2413C14.7649 0 16 1.23512 16 2.75869V11.6742C16 13.2502 14.0053 13.9343 13.0382 12.6903L10.0138 8.79956V13.5173C10.0138 14.8885 8.90225 16 7.53113 16H2.75863C1.23519 16 0 14.7649 0 13.2413V2.75869ZM2.75869 2.20712C2.68627 2.20706 2.61456 2.22127 2.54764 2.24893C2.48072 2.2766 2.41991 2.31719 2.36868 2.36837C2.31746 2.41956 2.27682 2.48034 2.2491 2.54723C2.22138 2.61413 2.20712 2.68584 2.20712 2.75825V13.2414C2.20712 13.5462 2.45375 13.7933 2.75825 13.7933H7.61375C7.76625 13.7933 7.80669 13.6697 7.80669 13.5173V7.19106C7.80669 5.61469 9.80131 4.93069 10.7689 6.17513L13.7933 10.0653V2.75875C13.7933 2.45381 13.8217 2.20719 13.5173 2.20719L2.75869 2.20712Z" fill="url(#paint1_linear_4696_20787)" fill-opacity="0.4"/>
<path d="M13.2414 0C14.765 0 16.0001 1.23512 16.0001 2.75869V11.6742C16.0001 13.2502 14.0054 13.9343 13.0384 12.6903L10.0139 8.79956V13.5173C10.0139 14.8885 8.90237 16 7.53125 16C7.60433 16 7.67441 15.9709 7.72608 15.9193C7.77776 15.8676 7.8068 15.7975 7.80681 15.7244V7.19112C7.80681 5.61469 9.80144 4.93069 10.769 6.17513L13.7934 10.0653V0.551562C13.7934 0.247125 13.5464 0 13.2414 0Z" fill="#63F655"/>
</g>
<defs>
<linearGradient id="paint0_linear_4696_20787" x1="1600" y1="1600" x2="193.104" y2="-2.64853e-05" gradientUnits="userSpaceOnUse">
<stop stop-color="#62F755"/>
<stop offset="1" stop-color="#8FF986" stop-opacity="0"/>
</linearGradient>
<linearGradient id="paint1_linear_4696_20787" x1="1600" y1="1600" x2="649.648" y2="1230.35" gradientUnits="userSpaceOnUse">
<stop stop-opacity="0.9"/>
<stop offset="1" stop-color="#1A1A1A" stop-opacity="0"/>
</linearGradient>
<clipPath id="clip0_4696_20787">
<rect width="16" height="16" fill="white"/>
</clipPath>
</defs>
</svg>
