<svg viewBox="0 0 16 16" fill="none" xmlns="http://www.w3.org/2000/svg">
<g clip-path="url(#clip0_4700_20789)">
<path d="M10.0582 10.3257H8.96106L8.86931 10.234V7.66578C8.86931 7.20878 8.68981 6.85466 8.13881 6.84228C7.85519 6.83478 7.53081 6.84228 7.18406 6.85603L7.13206 6.90916V10.2328L7.04044 10.3244H5.94319L5.85156 10.2328V5.84553L5.94319 5.75391H8.41231C9.37194 5.75391 10.1497 6.53141 10.1497 7.49116V10.234L10.0582 10.3257Z" fill="#014847"/>
<path d="M7.36775 14.9878V11.6965L7.45937 11.6047H8.559L8.65063 11.6964V14.9878L8.559 15.0794H7.4595L7.36775 14.9878ZM7.36775 4.383V1.09175L7.45937 1H8.559L8.65063 1.09162V4.383L8.559 4.47463H7.4595L7.36775 4.383ZM15.9096 8.68112H11.5211L11.4295 8.5895V7.49L11.5211 7.39838H15.9096L16.0012 7.49V8.58963L15.9096 8.68112ZM4.48012 8.68112H0.091625L0 8.5895V7.49L0.091625 7.39838H4.48012L4.57175 7.49V8.58963L4.48012 8.68112ZM3.41887 4.227V4.07587L4.17312 3.32175H4.32412L5.477 4.47463V5.27338L5.3705 5.37988H4.57175L3.41887 4.227ZM4.32412 12.7564H4.17312L3.419 12.0022V11.8511L4.57188 10.6984H5.37063L5.477 10.8048V11.6035L4.32412 12.7564Z" fill="#05BDBA"/>
</g>
<defs>
<clipPath id="clip0_4700_20789">
<rect width="16" height="16" fill="white"/>
</clipPath>
</defs>
</svg>
