<svg viewBox="0 0 24 24" fill="none" xmlns="http://www.w3.org/2000/svg">
<g clip-path="url(#clip0_4700_20802)">
<path d="M0.113 10.27C0.0564914 10.6714 0.0187836 11.0751 0 11.48H18.23C18.1624 11.3574 18.0837 11.2413 17.995 11.133C14.878 7.106 13.202 7.456 10.805 7.353C10.005 7.319 9.465 7.305 6.281 7.305C4.577 7.305 2.726 7.31 0.923 7.315C0.689 7.945 0.464 8.555 0.356 9.052H9.698V10.268H0.113V10.27ZM18.373 12.696H0.009C0.0283333 13.0213 0.0596667 13.3417 0.103 13.657H17.058C17.812 13.657 18.237 13.227 18.373 12.696ZM1.055 16.976C1.055 16.976 3.865 23.878 11.985 24C16.84 24 21.012 21.117 22.905 16.976H1.056H1.055ZM11.988 0C7.5 0 3.593 2.466 1.531 6.108L6.281 6.103V6.101C9.991 6.101 10.13 6.117 10.854 6.148L11.302 6.164C12.865 6.216 14.787 6.384 16.298 7.528C17.118 8.149 18.305 9.518 19.01 10.493C19.664 11.395 19.852 12.433 19.406 13.427C18.998 14.341 18.117 14.885 17.053 14.885H0.391C0.391 14.885 0.49 15.305 0.64 15.771H23.388C23.7915 14.5563 23.9981 13.2849 24 12.005C24 5.377 18.621 0 11.988 0Z" fill="currentColor"/>
</g>
<defs>
<clipPath id="clip0_4700_20802">
<rect width="24" height="24" fill="white"/>
</clipPath>
</defs>
</svg>
