<svg  viewBox="0 0 24 24" fill="none" xmlns="http://www.w3.org/2000/svg">
<g clip-path="url(#clip0_4700_20787)">
<path d="M18.2638 0.00679342C15.1428 -0.140207 12.5198 2.11579 12.0718 5.08879C12.0538 5.22679 12.0268 5.36079 12.0048 5.49379C11.3088 9.19679 8.0688 12.0008 4.1778 12.0008C2.84049 12.0035 1.52438 11.6666 0.352797 11.0218C0.321889 11.0042 0.286878 10.995 0.251305 10.9953C0.215732 10.9956 0.180859 11.0052 0.150212 11.0233C0.119565 11.0413 0.0942324 11.0672 0.0767754 11.0982C0.0593185 11.1292 0.0503568 11.1642 0.0507967 11.1998V23.9998H12.0008V15.0008C12.0008 13.3448 13.3388 12.0008 14.9878 12.0008H17.9758C21.3578 12.0008 24.0788 9.18379 23.9458 5.75679C23.8258 2.67279 21.3358 0.153793 18.2638 0.00679342Z" fill="currentColor"/>
</g>
<defs>
<clipPath id="clip0_4700_20787">
<rect width="24" height="24" fill="white"/>
</clipPath>
</defs>
</svg>
