<svg  viewBox="0 0 341 341" fill="none" xmlns="http://www.w3.org/2000/svg">
<g clip-path="url(#clip0_4700_20799)">
<path d="M43 298.417C99.554 354.97 191.247 354.97 247.801 298.417C304.355 241.863 304.355 150.17 247.801 93.6162L222.201 119.216C264.616 161.632 264.616 230.401 222.201 272.816C179.785 315.232 111.016 315.232 68.6 272.816L43 298.417Z" fill="#00C98D"/>
<path d="M94.1995 247.216C122.476 275.493 168.322 275.493 196.599 247.216C224.876 218.94 224.876 173.093 196.599 144.816L170.999 170.416C185.139 184.554 185.139 207.477 170.999 221.616C156.861 235.755 133.938 235.755 119.799 221.616L94.1995 247.216ZM298.999 42.4152C242.445 -14.1378 150.752 -14.1378 94.1995 42.4152C37.6445 98.9702 37.6445 190.662 94.1995 247.216L119.799 221.616C77.3845 179.201 77.3835 110.431 119.798 68.0162C162.214 25.6002 230.983 25.6002 273.398 68.0162L298.999 42.4152Z" fill="#00C98D"/>
<path d="M247.8 93.616C219.524 65.339 173.676 65.339 145.4 93.616C117.122 121.893 117.122 167.739 145.4 196.016L171 170.416C156.86 156.278 156.86 133.355 171 119.216C185.138 105.077 208.06 105.077 222.2 119.216L247.8 93.616Z" fill="#00C98D"/>
<path d="M298.999 42.4152C242.445 -14.1378 150.752 -14.1378 94.1995 42.4152C37.6445 98.9702 37.6445 190.662 94.1995 247.216L119.798 221.616C77.3835 179.201 77.3835 110.431 119.798 68.0162C162.214 25.6002 230.983 25.6002 273.398 68.0162L298.999 42.4152Z" fill="white" fill-opacity="0.4"/>
<path d="M247.8 93.616C219.524 65.339 173.676 65.339 145.4 93.616C117.122 121.893 117.122 167.739 145.4 196.016L171 170.416C156.86 156.278 156.86 133.355 171 119.216C185.138 105.077 208.06 105.077 222.2 119.216L247.8 93.616Z" fill="white" fill-opacity="0.4"/>
</g>
<defs>
<clipPath id="clip0_4700_20799">
<rect width="256" height="341" fill="white" transform="translate(43)"/>
</clipPath>
</defs>
</svg>
