<svg viewBox="0 0 16 16" fill="none" xmlns="http://www.w3.org/2000/svg">
<g clip-path="url(#clip0_4711_20877)">
<path d="M15.5963 2.44009L8.41604 15.2798C8.26766 15.545 7.88679 15.5465 7.73641 15.2828L0.413661 2.44159C0.249536 2.15384 0.495161 1.80572 0.821286 1.86384L8.00929 3.14847C8.05516 3.15681 8.10216 3.15681 8.14804 3.14847L15.1855 1.86584C15.5103 1.80672 15.7574 2.15197 15.5963 2.44009Z" fill="url(#paint0_linear_4711_20877)"/>
<path d="M11.4327 0.178566L6.11947 1.21957C6.07706 1.22785 6.03861 1.24999 6.01014 1.2825C5.98168 1.31501 5.96482 1.35606 5.96222 1.39919L5.63509 6.92019C5.63334 6.95047 5.63865 6.98074 5.65062 7.00861C5.66258 7.03647 5.68087 7.06117 5.70404 7.08075C5.7272 7.10032 5.75461 7.11423 5.78408 7.12138C5.81355 7.12853 5.84428 7.12872 5.87384 7.12194L7.35334 6.78007C7.38521 6.77274 7.4184 6.77354 7.44987 6.78238C7.48135 6.79122 7.5101 6.80783 7.53349 6.83067C7.55688 6.85351 7.57416 6.88186 7.58374 6.91312C7.59333 6.94437 7.59491 6.97754 7.58834 7.00957L7.14872 9.16194C7.142 9.19507 7.144 9.22937 7.15451 9.2615C7.16503 9.29362 7.18371 9.32247 7.20872 9.34521C7.23372 9.36795 7.26421 9.38381 7.29719 9.39123C7.33016 9.39866 7.3645 9.39739 7.39684 9.38757L8.31034 9.10969C8.45197 9.06669 8.58822 9.19119 8.55847 9.33619L7.85972 12.7171C7.81622 12.9286 8.09747 13.0438 8.21472 12.8626L8.29284 12.7416L12.6228 4.10032C12.6956 3.95532 12.5702 3.79032 12.4116 3.82107L10.8885 4.11507C10.8557 4.12143 10.8218 4.11927 10.7901 4.10878C10.7584 4.09829 10.73 4.07982 10.7075 4.05516C10.685 4.0305 10.6692 4.00046 10.6616 3.96794C10.6541 3.93541 10.655 3.9015 10.6643 3.86944L11.6581 0.424191C11.6674 0.392021 11.6683 0.357987 11.6607 0.32537C11.6531 0.292753 11.6372 0.262652 11.6145 0.237969C11.5919 0.213286 11.5632 0.194854 11.5314 0.184449C11.4996 0.174045 11.4656 0.172018 11.4327 0.178566Z" fill="url(#paint1_linear_4711_20877)"/>
</g>
<defs>
<linearGradient id="paint0_linear_4711_20877" x1="0.234686" y1="1.40504" x2="9.17141" y2="13.5418" gradientUnits="userSpaceOnUse">
<stop stop-color="#41D1FF"/>
<stop offset="1" stop-color="#BD34FE"/>
</linearGradient>
<linearGradient id="paint1_linear_4711_20877" x1="7.59647" y1="0.461063" x2="9.21309" y2="11.5508" gradientUnits="userSpaceOnUse">
<stop stop-color="#FFEA83"/>
<stop offset="0.083" stop-color="#FFDD35"/>
<stop offset="1" stop-color="#FFA800"/>
</linearGradient>
<clipPath id="clip0_4711_20877">
<rect width="16" height="16" fill="white"/>
</clipPath>
</defs>
</svg>
