<svg  viewBox="0 0 16 16" fill="none" xmlns="http://www.w3.org/2000/svg">
<path d="M10.5251 15H8.17013V14.115C8.17013 13.9535 8.13832 13.7935 8.0765 13.6443C8.01469 13.4951 7.92409 13.3595 7.80987 13.2453C7.69566 13.131 7.56006 13.0404 7.41083 12.9786C7.2616 12.9168 7.10166 12.885 6.94013 12.885C6.77861 12.885 6.61866 12.9168 6.46943 12.9786C6.3202 13.0404 6.18461 13.131 6.07039 13.2453C5.95618 13.3595 5.86557 13.4951 5.80376 13.6443C5.74195 13.7935 5.71013 13.9535 5.71013 14.115V15H1.00013V10.29H1.88513C2.21135 10.29 2.5242 10.1604 2.75487 9.92975C2.98554 9.69908 3.11513 9.38622 3.11513 9.06001C3.11513 8.73379 2.98554 8.42093 2.75487 8.19026C2.5242 7.95959 2.21135 7.83 1.88513 7.83H1.00013V5.5C0.996827 5.18864 1.0553 4.87972 1.17217 4.59111C1.28904 4.30249 1.46198 4.03992 1.68099 3.81858C1.90001 3.59725 2.16074 3.42154 2.4481 3.30163C2.73546 3.18172 3.04375 3.11999 3.35513 3.12H4.60013C4.66008 2.54047 4.93273 2.00372 5.36539 1.61351C5.79805 1.2233 6.36 1.00732 6.94263 1.00732C7.52526 1.00732 8.08721 1.2233 8.51987 1.61351C8.95253 2.00372 9.22518 2.54047 9.28513 3.12H10.5251C10.8365 3.11999 11.1448 3.18172 11.4322 3.30163C11.7195 3.42154 11.9803 3.59725 12.1993 3.81858C12.4183 4.03992 12.5912 4.30249 12.7081 4.59111C12.825 4.87972 12.8834 5.18864 12.8801 5.5V6.74C13.4597 6.79995 13.9964 7.07261 14.3866 7.50527C14.7768 7.93793 14.9928 8.49987 14.9928 9.08251C14.9928 9.66514 14.7768 10.2271 14.3866 10.6597C13.9964 11.0924 13.4597 11.3651 12.8801 11.425V12.67C12.8735 13.2902 12.6225 13.8828 12.1816 14.3191C11.7407 14.7554 11.1454 15 10.5251 15ZM9.28513 13.88H10.5251C10.8523 13.8787 11.1656 13.7482 11.397 13.5168C11.6283 13.2855 11.7588 12.9721 11.7601 12.645V10.29H12.6451C12.9713 10.29 13.2842 10.1604 13.5149 9.92975C13.7455 9.69908 13.8751 9.38622 13.8751 9.06001C13.8751 8.73379 13.7455 8.42093 13.5149 8.19026C13.2842 7.95959 12.9713 7.83 12.6451 7.83H11.7601V5.5C11.7588 5.17287 11.6283 4.85951 11.397 4.62818C11.1656 4.39686 10.8523 4.26632 10.5251 4.265H8.17013V3.355C8.17013 3.19348 8.13832 3.03353 8.0765 2.8843C8.01469 2.73507 7.92409 2.59948 7.80987 2.48526C7.69566 2.37105 7.56006 2.28045 7.41083 2.21863C7.2616 2.15682 7.10166 2.125 6.94013 2.125C6.77861 2.125 6.61866 2.15682 6.46943 2.21863C6.3202 2.28045 6.18461 2.37105 6.07039 2.48526C5.95618 2.59948 5.86557 2.73507 5.80376 2.8843C5.74195 3.03353 5.71013 3.19348 5.71013 3.355V4.24H3.35513C3.19102 4.24064 3.02866 4.27386 2.87748 4.33772C2.7263 4.40157 2.5893 4.49481 2.47442 4.61201C2.35954 4.72922 2.26907 4.86806 2.20825 5.02049C2.14744 5.17292 2.11748 5.33591 2.12013 5.5V6.74C2.69967 6.79995 3.23641 7.07261 3.62663 7.50527C4.01684 7.93793 4.23281 8.49987 4.23281 9.08251C4.23281 9.66514 4.01684 10.2271 3.62663 10.6597C3.23641 11.0924 2.69967 11.3651 2.12013 11.425V13.925H4.62013C4.68008 13.3455 4.95273 12.8087 5.38539 12.4185C5.81805 12.0283 6.38 11.8123 6.96263 11.8123C7.54526 11.8123 8.10721 12.0283 8.53987 12.4185C8.97253 12.8087 9.24518 13.3455 9.30513 13.925L9.28513 13.88Z" fill="#67D55E"/>
</svg>
